<svg width="78" height="104" viewBox="0 0 78 104" fill="none" xmlns="http://www.w3.org/2000/svg">
<g clip-path="url(#clip0_174_2113)">
<path d="M54.6 0C55.2535 0.521271 55.9665 0.987449 56.5564 1.57229C63.3082 8.28525 70.0345 15.0279 76.7905 21.7366C77.6181 22.5588 78 23.4106 77.9958 24.5972C77.9703 50.0971 77.9745 75.5971 77.9745 101.093C77.9745 103.347 77.3295 104 75.0845 104C51.0098 104 26.935 104 2.85604 104C0.678999 104 0.016975 103.339 0.016975 101.139C0.016975 68.3967 0.0254625 35.6499 0 2.90302C0 1.52991 0.394668 0.542461 1.69325 0C19.3303 0 36.9673 0 54.6 0ZM4.26496 99.7281H73.7138V25.9619H72.4449C66.6438 25.9619 60.8468 25.9619 55.0456 25.9619C52.7625 25.9619 52.1217 25.3346 52.1174 23.0885C52.1132 17.2274 52.0919 11.3705 52.1386 5.50937C52.1471 4.46683 51.8331 4.21679 50.8146 4.22103C35.7238 4.25493 20.6331 4.24222 5.53809 4.24222C4.18433 4.24222 4.18009 4.24222 4.18009 5.55175C4.18009 36.5399 4.18009 67.528 4.18009 98.5161C4.18009 98.9102 4.23101 99.3086 4.26072 99.7239L4.26496 99.7281ZM56.3696 7.66227C56.3484 7.77245 56.2848 7.96316 56.2848 8.14963C56.2805 12.413 56.289 16.6764 56.272 20.9356C56.272 21.6222 56.5733 21.779 57.1972 21.779C61.3985 21.7578 65.5998 21.7705 69.7969 21.7663C70.0387 21.7663 70.2849 21.7027 70.357 21.6942C65.7016 17.0282 61.0378 12.3452 56.3696 7.66227Z" fill="#344B83"/>
<path d="M4.26496 99.728C4.23525 99.3126 4.18433 98.9143 4.18433 98.5201C4.18433 67.532 4.18433 36.5439 4.18433 5.55582C4.18433 4.24629 4.19281 4.24629 5.54232 4.24629C20.6331 4.24629 35.7238 4.25476 50.8188 4.2251C51.8373 4.2251 52.1514 4.4709 52.1429 5.51344C52.0962 11.3703 52.1174 17.2315 52.1217 23.0926C52.1217 25.3429 52.7667 25.9659 55.0498 25.9659C60.851 25.9659 66.648 25.9659 72.4492 25.9659H73.7181V99.7322H4.26496V99.728ZM41.7415 39.1799C41.7584 37.2432 41.3341 35.4166 40.375 33.7341C39.0594 31.4244 37.0903 30.259 34.3998 30.5811C31.9978 30.8693 30.487 32.3398 29.6765 34.5266C28.7641 36.9889 28.6156 39.5571 29.6765 41.9558C30.8053 44.5113 32.2567 46.9185 33.6062 49.3723C33.8948 49.8978 34.1282 50.3174 33.8693 50.9531C31.6456 56.3607 29.4261 61.7684 27.2788 67.2099C26.8714 68.244 26.2051 68.5322 25.2206 68.8077C22.4621 69.5747 19.6613 70.3079 17.0429 71.4394C14.5433 72.5159 12.8501 74.6052 11.9164 77.2116C11.1483 79.3475 11.5472 81.297 13.0622 82.9625C14.5433 84.5899 16.4021 85.1874 18.5833 84.7128C21.8213 84.0093 24.253 82.1531 25.8741 79.3306C27.0326 77.3133 27.9408 75.1519 29.0442 73.0965C29.2988 72.6218 29.8165 72.109 30.3131 71.9777C35.8596 70.4817 41.4232 69.0577 46.9825 67.5998C47.6148 67.4345 48.0392 67.5914 48.4932 68.0702C49.6094 69.2484 50.7637 70.3969 51.9604 71.4945C54.6042 73.9187 57.6385 75.3977 61.3391 75.1222C63.5925 74.9527 65.4088 74.0119 66.4018 71.9268C67.3949 69.8502 67.2718 67.7736 65.8459 65.8962C64.1824 63.7094 61.8738 62.5694 59.2299 62.0862C56.1447 61.5226 53.0892 62.0438 50.0549 62.5482C49.2699 62.6795 48.7903 62.5227 48.2726 61.9845C44.8521 58.4246 41.9833 54.4536 39.4753 50.2156C39.0509 49.4994 39.0339 48.8976 39.3565 48.1306C40.5532 45.2614 41.716 42.3711 41.7457 39.1884L41.7415 39.1799Z" fill="#F7F7F7"/>
<path d="M56.3696 7.66211C61.0377 12.3451 65.7059 17.028 70.357 21.6941C70.2849 21.7025 70.0387 21.7661 69.7968 21.7661C65.5955 21.7703 61.3942 21.7619 57.1971 21.7788C56.5691 21.7788 56.2678 21.622 56.272 20.9355C56.289 16.6721 56.2805 12.4086 56.2847 8.14948C56.2847 7.95877 56.3526 7.76806 56.3696 7.66211Z" fill="#F7F7F7"/>
<path d="M41.7415 39.18C41.7075 42.3627 40.549 45.253 39.3522 48.1221C39.0297 48.8892 39.0467 49.491 39.4711 50.2072C41.9791 54.4494 44.8479 58.4162 48.2683 61.9761C48.7861 62.5143 49.2656 62.6669 50.0507 62.5397C53.085 62.0354 56.1405 61.5141 59.2257 62.0778C61.8695 62.5609 64.1781 63.7052 65.8417 65.8877C67.2676 67.7651 67.3907 69.8417 66.3976 71.9184C65.4046 74.0034 63.584 74.9443 61.3348 75.1138C57.6343 75.3893 54.6043 73.9102 51.9562 71.4861C50.7594 70.3884 49.6051 69.24 48.489 68.0618C48.0349 67.5829 47.6106 67.4261 46.9782 67.5914C41.4232 69.0492 35.8554 70.469 30.3088 71.9692C29.8123 72.1048 29.2946 72.6176 29.0399 73.088C27.9408 75.1435 27.0284 77.3048 25.8699 79.3221C24.2488 82.1488 21.8171 84.0008 18.5791 84.7043C16.3978 85.179 14.5391 84.5814 13.058 82.9541C11.543 81.2885 11.1441 79.3391 11.9122 77.2031C12.8501 74.601 14.5391 72.5117 17.0386 71.431C19.657 70.3037 22.4579 69.5663 25.2163 68.7992C26.2009 68.5237 26.8671 68.2356 27.2745 67.2015C29.4219 61.7642 31.6414 56.3523 33.8651 50.9446C34.1282 50.3089 33.8905 49.8851 33.602 49.3638C32.2525 46.91 30.7969 44.4986 29.6723 41.9474C28.6156 39.5487 28.7641 36.9805 29.6723 34.5182C30.4828 32.3314 31.9893 30.8608 34.3955 30.5726C37.0903 30.2505 39.0552 31.4202 40.3707 33.7257C41.3298 35.4082 41.7542 37.2347 41.7372 39.1715L41.7415 39.18ZM31.7093 67.2015C36.0888 66.0827 40.2052 65.0274 44.3344 63.9721C41.856 60.6962 39.4371 57.5008 36.9503 54.2121C35.2061 58.5391 33.5044 62.7516 31.7093 67.2015ZM35.8681 45.3717C35.9954 45.3801 36.1185 45.3928 36.2458 45.4013C36.6957 43.7316 37.1582 42.066 37.5953 40.392C37.9815 38.9214 37.625 37.5144 37.1115 36.1498C36.7763 35.2598 36.1779 34.5012 35.117 34.5521C34.0051 34.603 33.4874 35.4294 33.2625 36.4126C32.4646 39.9004 34.1537 42.6424 35.8681 45.3717ZM52.6012 66.3708C54.5321 68.3796 56.3696 70.4859 59.2851 70.986C60.0278 71.1131 60.8426 71.147 61.5682 70.986C62.9644 70.6724 63.4609 69.3756 62.5528 68.2822C61.9756 67.5871 61.1439 67.015 60.3163 66.6251C57.8337 65.4554 55.2323 65.9979 52.6012 66.3751V66.3708ZM24.4355 73.3254L24.1342 72.8973C22.1905 73.7025 20.1663 74.3594 18.333 75.3681C17.3612 75.9021 16.6482 76.987 15.9607 77.9278C15.4685 78.6059 15.4345 79.462 16.0074 80.1951C16.5761 80.9241 17.3781 80.8266 18.1505 80.7122C18.4773 80.6613 18.7913 80.5003 19.0926 80.3562C22.0887 78.9068 23.1496 76.0334 24.4312 73.3296L24.4355 73.3254Z" fill="#344B83"/>
<path d="M31.7092 67.2018C33.5043 62.7519 35.2018 58.5394 36.9503 54.2124C39.4371 57.5011 41.856 60.6965 44.3344 63.9725C40.2052 65.0277 36.0888 66.083 31.7092 67.2018Z" fill="white"/>
<path d="M35.8681 45.3718C34.1537 42.6425 32.4646 39.9048 33.2625 36.4127C33.4874 35.4295 34.0051 34.6031 35.117 34.5522C36.1779 34.5014 36.7763 35.26 37.1115 36.1499C37.625 37.5146 37.9815 38.9216 37.5953 40.3922C37.1582 42.0662 36.6957 43.7317 36.2458 45.4014C36.1185 45.393 35.9954 45.3803 35.8681 45.3718Z" fill="white"/>
<path d="M52.6012 66.3709C55.2323 65.9938 57.8337 65.4555 60.3163 66.621C61.1439 67.0109 61.9756 67.583 62.5528 68.278C63.4609 69.3714 62.9644 70.6682 61.5682 70.9819C60.8425 71.1471 60.0277 71.1132 59.2851 70.9819C56.3696 70.4818 54.5321 68.3797 52.6012 66.3667V66.3709Z" fill="white"/>
<path d="M24.4355 73.3253C23.1539 76.0334 22.0929 78.9025 19.0969 80.3519C18.7956 80.5002 18.4773 80.6613 18.1548 80.7079C17.3824 80.8266 16.5803 80.9198 16.0117 80.1909C15.4388 79.4577 15.4727 78.6016 15.965 77.9235C16.6482 76.9827 17.3654 75.8978 18.3372 75.3638C20.1705 74.3552 22.1948 73.6983 24.1384 72.8931L24.4397 73.3211L24.4355 73.3253Z" fill="white"/>
</g>
<defs>
<clipPath id="clip0_174_2113">
<rect width="78" height="104" fill="white"/>
</clipPath>
</defs>
</svg>
